<?xml version="1.0" encoding="utf-8"?>
<!-- Generator: Adobe Illustrator 24.2.1, SVG Export Plug-In . SVG Version: 6.00 Build 0)  -->
<svg version="1.1" id="Слой_1" xmlns="http://www.w3.org/2000/svg" xmlns:xlink="http://www.w3.org/1999/xlink" x="0px" y="0px"
	 viewBox="0 0 28 28" style="enable-background:new 0 0 28 28;" xml:space="preserve">
<style type="text/css">
	.st0{fill:none;}
	.st1{fill:#E99787;}
</style>
<desc>Created with Sketch.</desc>
<g id="Page-1">
	<g id="fire_outline_28">
		<rect class="st0" width="28" height="28"/>
		<path id="_x21B3_-Icon-Color" class="st1" d="M13.7,1.5c0.7,0.2,1.2,0.9,1,1.6c-0.1,0.3-0.2,0.6-0.3,0.9c-2.2,3.3-1.8,5.5-0.4,5.8
			c1.4,0.2,2.2-0.7,2-2.8c-0.1-0.5-0.1-0.9-0.1-1.2c0-0.3,0-0.6,0.2-0.9c0.4-0.6,1.2-0.8,1.9-0.4C18.7,5,19.5,5.8,20.5,7
			c2.7,3.4,3.5,6.3,3.5,9.4C23.9,22,19.7,26,14,26c-5.8,0-10-4-10-9.7c0-5,2.7-10.4,7.8-14C12,2.2,12.3,2,12.6,1.8
			C12.9,1.5,13.3,1.4,13.7,1.5z M11.6,5C8,8.2,6,12.5,6,16.4c0,4.5,3.3,7.6,8,7.6c4.6,0,7.9-3.1,8-7.7c0-2.6-0.7-5.1-3.1-8.1
			c-0.3-0.4-0.6-0.7-0.9-1c0.2,3.1-1.6,4.9-4.3,4.6C11,11.4,10.2,8.5,11.6,5z"/>
	</g>
</g>
</svg>
