<?xml version="1.0" encoding="utf-8"?>
<!-- Generator: Adobe Illustrator 24.2.1, SVG Export Plug-In . SVG Version: 6.00 Build 0)  -->
<svg version="1.1" id="Слой_1" xmlns="http://www.w3.org/2000/svg" xmlns:xlink="http://www.w3.org/1999/xlink" x="0px" y="0px"
	 viewBox="0 0 28 28" style="enable-background:new 0 0 28 28;" xml:space="preserve">
<style type="text/css">
	.st0{fill:none;}
	.st1{fill:#E99787;}
</style>
<g>
	<path class="st0" d="M0,0h28v28H0V0z"/>
	<path class="st1" d="M15.3,2.4C16,2.6,16.7,3,17.2,3.5c0.5,0.6,0.8,1.1,1.2,2.3L19.2,9c0.1,0.5-0.2,1.1-0.7,1.2s-1.1-0.2-1.2-0.7
		l-0.8-2.9l-0.1-0.4c-0.2-0.7-0.4-1-0.6-1.3c-0.2-0.3-0.5-0.4-0.9-0.5c-0.4-0.1-0.7-0.1-1.4,0.1L13,4.6L7.9,6C7,6.2,6.6,6.4,6.4,6.5
		l-0.1,0L6.2,6.7C5.9,7,5.7,7.2,5.7,7.6C5.6,8,5.6,8.4,5.8,9.2L9,21.3c0.3,1,0.4,1.4,0.7,1.7c0.2,0.3,0.5,0.4,0.9,0.5
		c0.3,0.1,0.6,0.1,1.2,0l0.2,0l0.4-0.1c0.5-0.1,1.1,0.2,1.2,0.7c0.1,0.5-0.1,1-0.6,1.2l-0.1,0l-0.5,0.1c-1,0.2-1.6,0.3-2.3,0.1
		c-0.7-0.2-1.4-0.5-1.9-1.1c-0.5-0.6-0.8-1.1-1.2-2.3L3.9,10c-0.4-1.3-0.4-2-0.2-2.8c0.2-0.7,0.5-1.2,0.9-1.7l0.2-0.2L5,5.1
		c0.5-0.4,1.1-0.7,2.1-1L7.3,4l5.1-1.4C13.8,2.3,14.5,2.2,15.3,2.4z M20.8,12c2.3,0,4.2,1.9,4.2,4.2c0,2.2-0.9,3.4-4.4,6.1l-1.6,1.3
		c-0.5,0.4-1.3,0.4-1.8,0l-1.6-1.3c-3.6-2.8-4.4-3.9-4.4-6.1c0-2.3,1.9-4.2,4.2-4.2c1,0,1.9,0.3,2.7,0.8l0.1,0.1l0.1-0.1
		c0.7-0.5,1.6-0.8,2.4-0.8L20.8,12z M20.8,14c-0.8,0-1.5,0.3-2.1,0.9l-0.4,0.4c-0.2,0.2-0.5,0.2-0.7,0l-0.4-0.4
		C16.7,14.3,16,14,15.2,14C14,14,13,15,13,16.2c0,1.4,0.6,2.1,3.7,4.5l1.3,1l1.8-1.4c2.6-2,3.1-2.8,3.2-4l0-0.1C23,15,22,14,20.8,14
		z"/>
</g>
</svg>
