<?xml version="1.0" encoding="utf-8"?>
<!-- Generator: Adobe Illustrator 24.2.1, SVG Export Plug-In . SVG Version: 6.00 Build 0)  -->
<svg version="1.1" id="Слой_1" xmlns="http://www.w3.org/2000/svg" xmlns:xlink="http://www.w3.org/1999/xlink" x="0px" y="0px"
	 viewBox="0 0 32 32" style="enable-background:new 0 0 32 32;" xml:space="preserve">
<style type="text/css">
	.st0{fill:none;}
	.st1{fill-rule:evenodd;clip-rule:evenodd;fill:#E99787;}
</style>
<desc>Created with Sketch.</desc>
<g id="Page-2">
	<g id="poll_32">
		<path id="icon-bounds" class="st0" d="M16,0L16,0c8.8,0,16,7.2,16,16l0,0c0,8.8-7.2,16-16,16l0,0C7.2,32,0,24.8,0,16l0,0
			C0,7.2,7.2,0,16,0z"/>
		<path id="Mask" class="st1" d="M24,15c1.1,0,2,0.9,2,2v8c0,1.1-0.9,2-2,2s-2-0.9-2-2v-8C22,15.9,22.9,15,24,15z M16,3
			c1.1,0,2,0.9,2,2v20c0,1.1-0.9,2-2,2s-2-0.9-2-2V5C14,3.9,14.9,3,16,3z M8,11L8,11c1.1,0,2,0.9,2,2v12c0,1.1-0.9,2-2,2l0,0
			c-1.1,0-2-0.9-2-2V13C6,11.9,6.9,11,8,11z"/>
	</g>
</g>
</svg>
