<?xml version="1.0" encoding="utf-8"?>
<!-- Generator: Adobe Illustrator 24.2.1, SVG Export Plug-In . SVG Version: 6.00 Build 0)  -->
<svg version="1.1" id="Слой_1" xmlns="http://www.w3.org/2000/svg" xmlns:xlink="http://www.w3.org/1999/xlink" x="0px" y="0px"
	 viewBox="0 0 28 28" style="enable-background:new 0 0 28 28;" xml:space="preserve">
<style type="text/css">
	.st0{fill:none;}
	.st1{fill:#E99787;}
</style>
<desc>Created with Sketch.</desc>
<g id="Page-1">
	<g id="privacy_outline_28">
		<polygon class="st0" points="0,0 28,0 28,28 0,28 		"/>
		<path id="_x21B3_-Icon-Color" class="st1" d="M24.4,12.1c0.5,0.8,0.6,1.8,0.2,2.7L22,20.3c-1.5,3.2-5.4,5.7-9,5.7h-1
			c-4.4,0-8-3.6-8-8v-7.9c0-1.5,1.2-2.7,2.8-2.7c0.3,0,0.5,0,0.7,0.1V6.8C7.5,5.2,8.7,4,10.3,4c0.3,0,0.6,0,0.8,0.1
			C11.4,2.9,12.4,2,13.8,2c1.5,0,2.7,1.2,2.7,2.6c0.2-0.1,0.5-0.1,0.8-0.1c1.5,0,2.8,1.2,2.8,2.8v4.3C21.3,10.2,23.4,10.4,24.4,12.1
			z M6.8,9.4C6.3,9.4,6,9.7,6,10.1V18c0,3.3,2.7,6,6,6h1c2.8,0,6-2,7.2-4.5l2.7-5.6c0.1-0.2,0.1-0.5,0-0.7c-0.4-0.6-1.1-0.6-1.5,0
			l-2.2,3.3c-0.6,0.9-1.1,0.7-1.1-0.3V7.3c0-0.4-0.3-0.8-0.8-0.8c-0.4,0-0.7,0.3-0.7,0.7V13c0,0.5-0.4,1-1,1c-0.6,0-1-0.4-1-1V4.8
			c0-0.4-0.3-0.8-0.8-0.8C13.3,4,13,4.3,13,4.8V13c0,0.5-0.4,1-1,1c-0.6,0-1-0.4-1-1V6.8C11,6.3,10.7,6,10.3,6
			C9.8,6,9.5,6.3,9.5,6.8v6.7c0,0.6-0.4,1-1,1c-0.6,0-1-0.4-1-1v-3.4C7.5,9.7,7.2,9.4,6.8,9.4z"/>
	</g>
</g>
</svg>
