<?xml version="1.0" encoding="utf-8"?>
<!-- Generator: Adobe Illustrator 24.2.1, SVG Export Plug-In . SVG Version: 6.00 Build 0)  -->
<svg version="1.1" id="Слой_1" xmlns="http://www.w3.org/2000/svg" xmlns:xlink="http://www.w3.org/1999/xlink" x="0px" y="0px"
	 viewBox="0 0 28 28" style="enable-background:new 0 0 28 28;" xml:space="preserve">
<style type="text/css">
	.st0{fill:#E99787;}
	.st1{fill-rule:evenodd;clip-rule:evenodd;fill:#E99787;}
</style>
<g>
	<path class="st0" d="M13,20c-0.6,0-1,0.4-1,1s0.4,1,1,1h2c0.6,0,1-0.4,1-1s-0.4-1-1-1H13z"/>
	<path class="st1" d="M6,8.4C6,6.2,6,5,6.4,4.2c0.4-0.8,1-1.4,1.7-1.7C9,2,10.2,2,12.4,2h3.2c2.2,0,3.4,0,4.2,0.4
		c0.8,0.4,1.4,1,1.7,1.7C22,5,22,6.2,22,8.4v11.2c0,2.2,0,3.4-0.4,4.2c-0.4,0.8-1,1.4-1.7,1.7C19,26,17.8,26,15.6,26h-3.2
		c-2.2,0-3.4,0-4.2-0.4c-0.8-0.4-1.4-1-1.7-1.7C6,23,6,21.8,6,19.6L6,8.4z M12.4,4h3.2c1.2,0,1.9,0,2.5,0c0.5,0,0.7,0.1,0.8,0.2
		c0.4,0.2,0.7,0.5,0.9,0.9c0.1,0.1,0.1,0.3,0.2,0.8c0,0.6,0,1.3,0,2.5v11.2c0,1.2,0,1.9,0,2.5c0,0.5-0.1,0.7-0.2,0.8
		c-0.2,0.4-0.5,0.7-0.9,0.9c-0.1,0.1-0.3,0.1-0.8,0.2c-0.6,0-1.3,0-2.5,0h-3.2c-1.2,0-1.9,0-2.5,0c-0.5,0-0.7-0.1-0.8-0.2
		c-0.4-0.2-0.7-0.5-0.9-0.9c-0.1-0.1-0.1-0.3-0.2-0.8c0-0.6,0-1.3,0-2.5V8.4c0-1.2,0-1.9,0-2.5c0-0.5,0.1-0.7,0.2-0.8
		c0.2-0.4,0.5-0.7,0.9-0.9C9.2,4.2,9.4,4.1,9.9,4C10.5,4,11.2,4,12.4,4z"/>
</g>
</svg>
