<?xml version="1.0" encoding="utf-8"?>
<!-- Generator: Adobe Illustrator 24.2.1, SVG Export Plug-In . SVG Version: 6.00 Build 0)  -->
<svg version="1.1" id="Слой_1" xmlns="http://www.w3.org/2000/svg" xmlns:xlink="http://www.w3.org/1999/xlink" x="0px" y="0px"
	 viewBox="0 0 28 28" style="enable-background:new 0 0 28 28;" xml:space="preserve">
<style type="text/css">
	.st0{fill-rule:evenodd;clip-rule:evenodd;fill:#E99787;}
</style>
<path class="st0" d="M13.4,5c0.2-0.8,1-1.2,1.8-0.9C15.7,4.3,16,4.8,16,5.3V10c0,0.6,0.4,1,1,1h1.5c1.8,0,3.2,0.5,4.1,1.4
	c0.9,0.9,1.4,2.2,1.4,4.1v1c0,1.9-0.6,3.3-1.4,4.1c-0.9,0.9-2.2,1.4-4.1,1.4H15h0h0h0h0h0h0h0h0h0h0h0h0h0h0h0h0h0h0h0h0h0h0h0h0h0
	h0h0h0h0h0h0h0h0h0h0h0h0h0h0h0h0h0h0h0h0h0h0h0h0h0h0h0h0h0h0h0h0h0h0h0h0h0h0h0h0h0h0h0h0h0h0h0h0h0h0h0h0h0h0h0h0h0h0h0h0h0h0h0
	h0h0h0h0h0h0h0h0h0h0h0h0h0h0h0h0h0h0h0h0h0h0h0h0h0h0h0h0h0h0h0h0h0h0h0h0h0h0h0h0h0h0h0h0h0h0h0h0h0h0h0h0h0h0h0h0h0h0h0h0h0h0h0
	h0h0h0h0h0h0h0h0h0h0h0h0h0h0h0h0h0h0h0h0h0h0h0h0h0h0h0h0h0h0h0h0h0h0h0h0h0h0h0h0h0h0h0h0h0h0h0h0h0h0h0h0h0h0h0h0h0h0h0h0h0h0h0
	h0h0h0h0h0h0h0h0h0h0h0h0h0h0h0h0h0h0h0h0h0h0h0h0h0h0h0h0h0h0h0h0h0h0h0h0h0h0h0h0h0h0h0h0h0h0h0h0h0h0h0h0h0h0h0h0h0h0h0h0h0h0h0
	h0h0h0h0h0h0h0h0h0h0h0h0h0h0h0h0h0h0h0h0h0h0h0h0h0h0h0h0h0h0h0h0h0h0h0h0c0-0.2,0-0.5,0-0.7v0v-7.5v0c0-0.3,0-0.5,0-0.7l1.7-1.4
	c0.5-0.4,0.8-0.9,0.9-1.4L13.4,5z M8.8,12l1.2-0.9c0.1-0.1,0.2-0.2,0.2-0.3l1.3-6.1c0.4-2,2.6-3.1,4.5-2.4C17.2,2.7,18,4,18,5.3V9
	h0.5c2.2,0,4.1,0.6,5.4,1.9c1.4,1.3,2.1,3.2,2.1,5.6v1c0,2.3-0.7,4.2-2.1,5.6c-1.4,1.3-3.3,1.9-5.4,1.9H15h0h0h0h0h0h0h0h0h0h0h0h0
	h0h0h0h0h0h0h0h0h0h0h0h0h0h0h0h0h0h0h0h0h0h0h0h0h0h0h0h0h0h0h0h0h0h0h0h0h0h0h0h0h0h0h0h0h0h0h0h0h0h0h0h0h0h0h0h0h0h0h0h0h0h0h0
	h0h0h0h0h0h0h0h0h0h0h0h0h0h0h0h0h0h0h0h0h0h0h0h0h0h0h0h0h0h0h0h0h0h0h0h0h0h0h0h0h0h0h0h0h0h0h0h0h0h0h0h0h0h0h0h0h0h0h0h0h0h0h0
	h0h0h0h0h0h0h0h0h0h0h0h0h0h0h0h0h0h0h0h0h0h0h0h0h0h0h0h0h0h0h0h0h0h0h0h0h0h0h0h0h0h0h0h0h0h0h0h0h0h0h0h0h0h0h0h0h0h0h0h0h0h0h0
	h0h0h0h0h0h0h0h0h0h0h0h0h0h0h0h0h0h0h0h0h0h0h0h0h0h0h0h0h0h0h0h0h0h0h0h0h0h0h0h0h0h0h0h0h0h0h0h0h0h0h0h0h0h0h0h0h0h0h0h0h0h0h0
	h0h0h0h0h0h0h0h0h0h0h0h0h0h0h0h0h0h0h0h0h0h0h0h0h0h0h0h0h0h0h0h0h0h0h0h0h0h0h0h0h0h0h0h0h0h0h0h0h0h0h0h0h0h0h0h0h0h0h0h0h0h0h0
	h0h0h0h0h0h0h0h0h0h0h0h0h0h0h0h0h0h0h0h0h0h0h0h0h0h0h0h0h0h0h0h0h0h0h0h0h0h0h0h0h0h0h0h0h0h0h0h0h0h0h0h0h0h0h0h0h0h0h0h0h0h0h0
	h0h0h0h0h0h0h0h0h0h0h0h0c-0.3,0.3-0.7,0.6-1.1,0.8C7.4,25.9,7.1,26,6.8,26c-0.3,0-0.6,0-1,0h0h0h0h0c-0.4,0-0.7,0-1,0
	c-0.3,0-0.6-0.1-0.9-0.2c-0.7-0.3-1.3-0.9-1.6-1.6C2.1,23.9,2,23.6,2,23.3c0-0.3,0-0.6,0-1v0v0v-7.5v0v0c0-0.4,0-0.7,0-1
	c0-0.3,0.1-0.6,0.2-0.9c0.3-0.7,0.9-1.3,1.6-1.6C4.1,11.1,4.4,11,4.7,11c0.3,0,0.6,0,1,0h0h0c0.4,0,0.7,0,1,0c0.3,0,0.6,0.1,0.9,0.2
	C8.1,11.4,8.5,11.6,8.8,12z M4.5,13.1c0,0,0.1,0,0.3,0c0.2,0,0.5,0,0.9,0s0.7,0,0.9,0c0.2,0,0.3,0,0.3,0c0.2,0.1,0.4,0.3,0.5,0.5
	c0,0,0,0.1,0,0.3c0,0.2,0,0.5,0,0.9v7.5c0,0.4,0,0.7,0,0.9c0,0.2,0,0.3,0,0.3c-0.1,0.2-0.3,0.4-0.5,0.5c0,0-0.1,0-0.3,0
	c-0.2,0-0.5,0-0.9,0S5,24,4.8,24c-0.2,0-0.3,0-0.3,0c-0.2-0.1-0.4-0.3-0.5-0.5c0,0,0-0.1,0-0.3c0-0.2,0-0.5,0-0.9v-7.5
	c0-0.4,0-0.7,0-0.9c0-0.2,0-0.3,0-0.3C4.1,13.3,4.3,13.1,4.5,13.1z"/>
</svg>
