<?xml version="1.0" encoding="utf-8"?>
<!-- Generator: Adobe Illustrator 24.2.1, SVG Export Plug-In . SVG Version: 6.00 Build 0)  -->
<svg version="1.1" id="Слой_1" xmlns="http://www.w3.org/2000/svg" xmlns:xlink="http://www.w3.org/1999/xlink" x="0px" y="0px"
	 viewBox="0 0 28 28" style="enable-background:new 0 0 28 28;" xml:space="preserve">
<style type="text/css">
	.st0{fill-rule:evenodd;clip-rule:evenodd;fill:#E99787;}
</style>
<path class="st0" d="M23,8.5c0,3-2.5,5.5-5.5,5.5S12,11.5,12,8.5c0-3,2.5-5.5,5.5-5.5S23,5.5,23,8.5z M21,8.5C21,6.6,19.4,5,17.5,5
	S14,6.6,14,8.5c0,1.9,1.6,3.5,3.5,3.5S21,10.4,21,8.5z M10.6,21.5c-0.1-0.1-0.1-0.2-0.1-0.5v0c0-0.1,0-0.2,0-0.3
	c0-2.3,3.3-3.6,7.3-3.6s7.3,1.4,7.3,3.6c0,0.1,0,0.2,0,0.3v0c0,0.3,0,0.4-0.1,0.5c0,0-0.1,0-0.3,0h0c0,0-0.1,0-0.1,0H11
	c0,0-0.1,0-0.1,0h0C10.7,21.5,10.6,21.5,10.6,21.5z M8.5,20.6c0-3.9,4.3-5.6,9.3-5.6s9.3,1.8,9.3,5.6c0,2-0.8,2.9-2.5,2.9H11
	C9.3,23.5,8.5,22.7,8.5,20.6z M9.7,9.8c-0.4-0.4-1-0.4-1.4,0l-4.6,4.6l-2-2l-0.1-0.1c-0.4-0.3-1-0.3-1.3,0.1c-0.4,0.4-0.4,1,0,1.4
	L3,16.5l0.1,0.1c0.4,0.3,1,0.3,1.3-0.1l5.3-5.3l0.1-0.1C10.1,10.7,10.1,10.2,9.7,9.8z"/>
</svg>
